<svg version="1.1" id="Layer_1" xmlns="http://www.w3.org/2000/svg" xmlns:xlink="http://www.w3.org/1999/xlink" x="0px" y="0px"
	 width="100%" viewBox="0 0 1024 672" enable-background="new 0 0 1024 672" xml:space="preserve">
<path fill="#000000" opacity="1.000000" stroke="none" 
	d="
M245.200012,288.396088 
	C252.321609,264.669373 245.042435,242.600006 239.443893,220.377686 
	C238.678558,217.339828 237.214828,216.007919 233.783737,216.402771 
	C216.819061,218.355087 199.865692,217.399063 182.932129,215.760910 
	C181.940399,215.664963 180.885239,215.295807 179.966705,215.510986 
	C165.865005,218.814514 152.162811,215.318726 138.381073,213.162491 
	C132.625061,212.261917 126.872734,211.336304 121.109909,210.481598 
	C119.800667,210.287415 118.195686,209.833923 117.167175,210.360260 
	C109.619278,214.222839 101.466209,212.202988 93.621674,213.036194 
	C86.062950,213.839020 78.719193,212.913361 71.561363,210.323074 
	C69.946068,209.738525 68.214775,209.342789 67.961502,207.373306 
	C67.689621,205.259094 69.482391,204.574600 70.980095,203.897812 
	C82.686096,198.607895 95.050667,195.850723 107.817780,196.061539 
	C120.892883,196.277466 133.714996,194.844803 146.552032,192.709213 
	C156.796387,191.004944 167.134995,191.270798 177.445663,192.335495 
	C185.514908,193.168747 193.303528,190.548019 201.271225,190.418198 
	C211.848221,190.245834 222.019180,188.259888 232.019180,184.899628 
	C235.305008,183.795486 238.911163,183.340622 242.402359,183.776382 
	C249.978760,184.722031 256.844452,182.663620 263.631195,179.604965 
	C269.392700,177.008347 272.172119,168.281479 268.059753,163.316467 
	C264.735626,159.303116 262.706604,154.475906 258.225952,151.063171 
	C253.055267,147.124939 253.576813,140.360596 258.202942,136.161270 
	C259.532166,134.954681 259.505341,133.590042 259.611115,132.112396 
	C260.600311,118.290611 268.767395,110.563164 282.203369,110.727173 
	C294.561859,110.878044 302.561432,118.901855 303.340912,131.954178 
	C303.429840,133.442612 303.440033,134.725555 304.851715,135.902939 
	C310.023071,140.215912 309.023132,148.219345 303.674622,152.788940 
	C298.112122,157.541397 293.681183,163.194901 294.061371,171.344574 
	C294.248505,175.355270 295.852600,177.725433 299.440460,179.450714 
	C306.007538,182.608612 312.607361,184.855652 320.081390,183.787292 
	C323.886078,183.243454 327.924500,183.513275 331.437805,184.974945 
	C346.881470,191.400055 363.501190,190.071335 379.544983,192.377106 
	C386.489868,193.375214 393.748047,191.268372 400.927765,191.383484 
	C412.142670,191.563309 423.059784,194.035217 434.126129,195.297287 
	C443.363495,196.350769 452.735138,196.266113 462.050781,196.584167 
	C472.380707,196.936829 482.004486,200.078857 491.494781,203.804794 
	C493.218628,204.481598 495.200317,205.147583 494.938232,207.454269 
	C494.721741,209.359451 492.981262,209.918381 491.308655,210.396988 
	C476.946991,214.506378 462.537018,214.698456 448.097443,210.900803 
	C443.213196,209.616211 438.492401,211.134445 433.784760,211.732559 
	C422.564728,213.158051 411.508820,215.734009 400.216705,216.767838 
	C397.377350,217.027786 394.544128,217.288300 391.755035,216.714981 
	C385.134918,215.354202 378.507202,215.913834 371.879974,216.452728 
	C357.912506,217.588455 343.940857,218.027435 329.988831,216.417709 
	C326.568817,216.023117 324.769012,217.088135 323.712616,220.401215 
	C318.673920,236.203918 315.608185,252.417313 315.200653,268.935120 
	C314.925140,280.101807 318.758789,290.889252 320.804779,301.827026 
	C326.183289,330.580444 326.946198,359.364716 322.580017,388.286804 
	C320.030151,405.177368 319.660156,422.052094 322.284821,439.002716 
	C324.715759,454.701965 322.012909,470.221893 319.800720,485.708588 
	C318.334290,495.974457 317.501343,506.315887 318.445404,516.586060 
	C319.162262,524.385254 322.270325,531.702820 327.233276,537.999878 
	C332.421631,544.583008 331.266266,547.834412 322.967926,549.406067 
	C317.040894,550.528625 311.010590,550.541870 305.028107,550.131104 
	C299.329132,549.739807 296.579529,546.758362 296.832642,540.949646 
	C297.230469,531.818298 298.130890,522.710022 298.716980,513.585449 
	C299.764832,497.270905 296.289703,481.471222 293.247375,465.608643 
	C291.481018,456.399139 291.221222,447.093842 292.415131,437.753174 
	C292.878571,434.127563 293.366974,430.375244 292.094879,426.851379 
	C287.834351,415.049133 288.070923,402.598114 286.794952,390.391449 
	C285.151855,374.672729 284.103882,358.891907 282.784027,343.139099 
	C282.717773,342.348450 282.772705,341.426483 281.649506,341.092560 
	C279.692200,342.054657 280.394684,343.937439 280.322662,345.446106 
	C279.210480,368.739502 277.376709,392.058350 273.601715,414.983826 
	C271.572845,427.305267 271.202240,439.312805 271.384705,451.540070 
	C271.563293,463.508423 268.310577,474.935730 266.118683,486.515015 
	C263.162598,502.131500 264.505768,517.734192 265.956146,533.286194 
	C267.327545,547.991516 265.581238,550.377991 250.774399,550.224182 
	C245.940063,550.174011 241.072342,550.089844 236.501724,548.292847 
	C232.804367,546.839111 231.461945,543.976379 234.144104,540.818848 
	C246.594925,526.161316 246.205261,508.908936 244.061295,491.492950 
	C241.390884,469.800659 239.001617,448.235168 242.483963,426.335510 
	C244.645706,412.740784 242.117401,399.061890 240.419571,385.536713 
	C236.822876,356.885223 237.534805,328.432007 243.045349,300.091003 
	C243.774796,296.339447 244.408432,292.569244 245.200012,288.396088 
M248.650497,287.870514 
	C247.424103,295.095184 250.255630,297.169312 260.668365,296.022980 
	C258.253876,289.141724 257.752258,282.113190 258.679260,274.995300 
	C259.567810,268.172363 256.975128,261.405426 258.054474,254.535080 
	C260.947449,261.102264 262.131439,267.914734 261.548523,274.902557 
	C261.002533,281.447449 261.171844,287.842407 262.981567,294.203796 
	C263.615845,296.433411 264.495880,297.725952 266.982513,297.713654 
	C276.810333,297.665100 286.638580,297.683716 296.466583,297.706726 
	C298.768951,297.712097 300.123779,296.815216 300.751892,294.446289 
	C302.258179,288.765411 303.386017,283.086945 302.263672,277.192932 
	C300.884583,269.950714 302.718750,262.962952 303.986603,255.938293 
	C304.156036,254.999649 304.660095,253.976242 306.825775,254.791870 
	C303.119965,268.203796 307.451965,282.274719 303.381134,295.947144 
	C305.692535,296.891479 307.457916,296.087067 309.194214,295.814941 
	C315.823944,294.775940 316.495941,294.371765 314.599091,287.841034 
	C310.370544,273.282349 311.408508,258.911530 314.592773,244.405167 
	C315.518097,240.189743 316.809998,235.913666 316.388489,231.276779 
	C306.358276,236.031677 298.419098,236.795700 294.991150,233.455246 
	C296.192963,232.156128 297.826874,232.515991 299.220093,232.582581 
	C311.428711,233.166031 318.458649,226.855011 322.063293,215.768784 
	C322.624756,214.042023 323.362701,212.313400 324.349304,210.801056 
	C325.305725,209.334991 325.955658,207.165833 328.316589,207.273865 
	C329.243591,209.277222 326.575104,210.545532 328.433502,212.775284 
	C339.683929,214.510727 351.477905,213.790848 363.245514,213.320755 
	C370.059875,213.048538 377.034271,211.146027 383.627045,212.105179 
	C398.519684,214.271881 412.787659,211.115723 427.263489,209.128143 
	C434.142853,208.183594 441.523285,204.758881 447.865662,207.404099 
	C456.333435,210.935776 464.428101,207.952057 473.633331,209.576736 
	C470.886627,207.224182 468.617584,207.667847 466.589539,207.194885 
	C464.672455,206.747787 462.289612,206.826538 461.770996,203.820084 
	C470.355621,203.250793 478.553375,203.010849 486.497345,206.129044 
	C479.437592,203.194092 472.339233,200.729111 464.636383,200.240326 
	C450.224701,199.325836 435.703461,200.200134 421.409302,197.245422 
	C412.084595,195.317917 402.511230,194.229568 393.089386,195.438492 
	C382.648468,196.778168 372.461731,195.718857 362.312714,194.024033 
	C355.728363,192.924500 348.882050,194.612244 342.538818,191.990509 
	C330.621948,187.065155 318.455231,186.060959 305.844452,188.812088 
	C298.746948,190.360458 291.232208,189.183044 284.228638,192.024704 
	C289.127472,184.358276 297.659668,188.223877 305.319946,185.378494 
	C296.345947,182.196838 288.569031,179.062271 290.823883,167.216827 
	C284.653778,170.761765 279.323730,170.666946 273.031982,168.122681 
	C274.637482,179.277145 267.303070,182.533600 258.251923,185.261414 
	C263.165497,187.200851 266.891144,186.468994 270.477112,186.888153 
	C276.000397,187.533752 277.682495,188.765167 277.922241,192.696365 
	C273.843231,190.133011 269.366211,189.685928 264.935791,189.517441 
	C260.753021,189.358368 256.619781,188.944885 252.547729,188.130341 
	C243.642822,186.349091 235.027603,187.501053 226.420395,189.977554 
	C222.603943,191.075623 219.074371,193.025314 214.941299,193.244263 
	C196.878296,194.201157 178.946793,196.809280 160.708450,195.436401 
	C147.740494,194.460236 135.025314,199.017761 122.046242,199.481018 
	C112.090744,199.836349 102.120415,199.512344 92.209297,200.968185 
	C85.855835,201.901459 80.089485,204.536926 74.051140,206.611923 
	C83.055672,203.338196 92.216599,202.446121 102.086700,203.783218 
	C98.904549,209.309189 92.698799,205.825195 88.111816,209.456528 
	C95.073822,208.763580 101.010315,209.308456 106.959267,209.591049 
	C108.367699,209.657944 109.958061,209.092636 111.222816,208.385498 
	C114.965874,206.292648 118.815742,206.581665 122.860176,207.101151 
	C136.390686,208.839081 149.712524,211.942581 163.350357,213.015442 
	C171.053864,213.621460 178.546310,211.163666 186.261414,212.082504 
	C200.010971,213.720078 213.832092,214.051239 227.669830,213.697495 
	C230.314697,213.629883 232.893951,213.294815 234.826447,212.304550 
	C236.036911,209.352280 231.879654,208.784134 233.055679,206.186035 
	C235.306610,205.994156 236.405365,207.578308 237.555054,208.937454 
	C239.967621,211.789566 241.236633,215.279831 242.479492,218.709015 
	C246.007797,228.443924 252.909515,232.871811 263.163483,232.616333 
	C264.863464,232.573975 267.166565,231.508545 268.781891,234.435776 
	C260.717255,236.651550 253.616714,234.947845 246.115692,230.852493 
	C249.646255,249.996399 255.173904,268.314178 248.650497,287.870514 
M296.232422,430.781647 
	C294.453125,447.137543 295.325775,463.292969 299.283142,479.322510 
	C302.131134,490.858246 302.804871,502.676117 302.201996,514.521484 
	C301.779724,522.818420 300.820190,531.087280 300.346863,539.382690 
	C299.959320,546.175354 303.589447,548.465454 310.023193,545.788391 
	C310.502045,543.532410 306.453217,542.975098 307.955933,540.221191 
	C311.871643,540.173645 312.292816,544.420227 314.738342,546.171875 
	C316.542145,543.575134 311.811188,542.609558 313.965668,540.098572 
	C316.911469,540.655701 317.784424,543.804932 319.997284,545.310730 
	C319.833618,544.355713 319.412476,543.673462 318.953918,543.017395 
	C318.402527,542.228516 317.490479,541.585083 318.032410,540.281494 
	C318.691864,539.639038 319.477661,540.061584 320.265167,540.241516 
	C321.354095,540.490173 322.220459,540.154175 323.118469,538.604919 
	C313.602814,524.584167 313.815887,508.642944 315.532318,492.317230 
	C317.439819,474.173981 321.309174,456.141510 318.774200,437.692108 
	C317.848755,430.956787 316.716125,424.249847 316.626129,417.368561 
	C316.392059,399.476257 320.878265,382.044128 321.390442,364.236603 
	C321.528168,359.448730 321.902740,354.687927 321.339447,348.990326 
	C309.594666,352.506470 298.330780,351.728607 287.250916,348.174896 
	C286.026184,355.750671 291.574463,405.287689 296.232422,430.781647 
M245.093170,394.656677 
	C246.337524,403.924103 246.783249,413.243378 246.246567,422.565063 
	C245.874329,429.029968 244.829208,435.453156 244.300446,441.912659 
	C242.848862,459.645721 246.283951,477.067871 247.762848,494.617798 
	C248.853973,507.566101 249.990662,520.573914 243.337601,532.653809 
	C242.455811,534.254883 241.800110,535.980957 240.910965,537.577393 
	C239.903946,539.385559 240.796509,541.091675 242.296646,540.653748 
	C244.906769,539.891907 247.276749,542.708252 249.500229,540.279297 
	C250.824142,543.047791 246.377090,543.746460 248.171783,546.499512 
	C251.755920,546.054443 251.176056,539.789490 255.712646,540.560547 
	C256.105225,542.909058 253.243759,543.573547 253.692093,545.656799 
	C259.204895,548.153748 262.740082,546.314331 262.759552,540.791077 
	C262.770660,537.637756 262.425110,534.482910 262.231110,531.329285 
	C261.322968,516.567444 259.805328,501.867615 262.549255,487.052856 
	C264.754364,475.147095 268.218170,463.406586 267.985535,451.091003 
	C267.757965,439.042786 267.630676,427.241211 270.161743,415.049988 
	C273.757812,397.729218 274.160980,379.725800 275.572052,361.985718 
	C275.907166,357.772461 277.279022,353.517395 276.390381,349.459564 
	C275.103516,348.539764 274.119171,348.985870 273.178406,349.193604 
	C263.998718,351.220642 254.814499,352.376923 245.516235,349.849823 
	C241.620850,348.791138 241.982834,351.693726 241.963943,353.994324 
	C241.854340,367.333435 242.999969,380.581818 245.093170,394.656677 
M257.747833,300.076660 
	C254.147964,299.790710 250.791534,297.930573 246.806839,298.208069 
	C244.471939,312.133026 242.581299,325.911041 242.042587,339.885040 
	C241.864441,344.505859 243.975555,346.078857 247.946091,346.767487 
	C255.958313,348.157074 263.837067,347.300995 271.759583,345.941528 
	C275.013397,345.383209 276.972839,344.272461 277.071838,340.690521 
	C277.148163,337.927673 278.658905,336.604065 281.595428,336.624420 
	C284.518616,336.644684 285.971893,337.902008 286.044342,340.731873 
	C286.121399,343.743500 287.754852,345.088684 290.554321,345.765961 
	C299.781250,347.998383 308.985657,348.008209 318.243469,346.016052 
	C320.313782,345.570557 321.552551,344.736237 321.434570,342.396149 
	C320.738983,328.598053 319.745056,314.840271 316.937195,301.267517 
	C316.388885,298.617157 315.127319,298.177704 312.704956,298.665100 
	C294.768066,302.273865 276.734802,302.870575 257.747833,300.076660 
M294.394135,119.096954 
	C293.321014,118.312592 292.312103,117.415649 291.164825,116.761284 
	C279.679626,110.210373 264.540436,116.928009 263.437378,129.292145 
	C262.863251,135.727783 262.870941,142.249390 264.382233,148.657333 
	C265.767487,154.531036 268.676636,159.460892 273.261108,163.340286 
	C278.811310,168.036865 284.310455,167.882736 290.001343,163.439697 
	C296.461273,158.396255 298.793396,151.346100 299.339539,143.752258 
	C299.938477,135.424057 301.685883,126.658905 294.394135,119.096954 
M303.062622,141.310608 
	C302.633179,143.354660 301.847900,145.389114 302.914215,147.835342 
	C304.650391,146.023407 305.261841,143.992920 305.360931,141.883820 
	C305.414276,140.748840 304.945435,139.348007 303.062622,141.310608 
M260.098572,141.229187 
	C259.201324,139.517151 258.229004,139.879166 257.957153,141.441360 
	C257.555054,143.751862 258.497253,145.792297 260.733826,147.466324 
	C260.594025,145.586487 260.454224,143.706665 260.098572,141.229187 
z"/>
<path fill="#000000" opacity="1.000000" stroke="none" 
	d="
M754.600037,386.364471 
	C753.116455,370.932739 751.670959,355.956573 750.211060,340.831421 
	C747.591492,341.507690 748.323669,343.330170 748.258301,344.603058 
	C747.080505,367.555939 745.504333,390.586090 741.684265,413.148468 
	C739.341553,426.985443 739.384949,440.484711 739.337708,454.202606 
	C739.297791,465.800537 735.838379,476.865509 733.999146,488.178864 
	C731.621094,502.806061 732.615906,517.372070 733.781921,531.978577 
	C734.059814,535.459412 734.187073,538.953491 734.326843,542.443787 
	C734.475952,546.170959 732.612610,548.405945 729.036438,549.234192 
	C719.808960,551.371704 711.183167,548.536194 702.728027,545.554871 
	C699.261047,544.332458 698.557007,540.618652 701.394409,538.241943 
	C713.244934,528.315674 713.698914,515.190796 712.836609,501.360596 
	C712.214050,491.376526 710.796753,481.502808 709.564514,471.605347 
	C707.784241,457.306061 707.665161,443.034058 709.806824,428.806091 
	C711.412170,418.140747 711.187134,407.512115 709.511841,396.968567 
	C703.238464,357.487549 704.862732,318.304321 714.046509,279.490814 
	C716.818359,267.776215 714.140381,256.672882 712.464600,245.394623 
	C711.217773,237.003098 709.168335,228.751541 706.782410,220.583344 
	C705.822815,217.298019 704.399231,215.888763 700.828735,216.307343 
	C683.860962,218.296494 666.916626,217.448853 650.008179,215.451630 
	C646.947388,215.090088 644.038940,215.874161 641.083435,216.252548 
	C626.557312,218.112335 612.677063,213.769745 598.537292,211.939117 
	C591.161316,210.984192 584.026428,211.031677 576.440979,211.961121 
	C564.125549,213.470139 551.313049,214.783447 538.944641,210.774689 
	C537.174805,210.201065 535.215759,209.765625 534.980408,207.538040 
	C534.737122,205.234406 536.657104,204.529877 538.322388,203.739548 
	C549.515930,198.427200 561.501343,196.048203 573.695435,196.135712 
	C587.605225,196.235489 601.233948,194.587326 614.907166,192.522186 
	C624.659851,191.049194 634.486145,191.343048 644.299622,192.436646 
	C652.681824,193.370743 660.814941,190.600021 669.115662,190.423370 
	C679.190430,190.208969 688.851868,188.246216 698.341858,184.950394 
	C701.624329,183.810394 705.232727,183.335175 708.717651,183.766739 
	C716.506226,184.731232 723.456299,182.335587 730.335327,179.148193 
	C736.729553,176.185410 739.412415,166.903397 735.079651,161.177536 
	C732.538940,157.819946 730.425293,154.271683 726.533081,151.734955 
	C720.888062,148.055847 720.808411,140.589539 725.444519,135.622604 
	C726.774475,134.197708 726.579834,132.594360 726.711365,130.967972 
	C727.686829,118.905418 735.501038,111.287994 747.436707,110.764313 
	C760.002686,110.212967 768.251282,116.671211 770.510254,128.834824 
	C771.103027,132.026581 771.380493,134.963684 774.399597,137.506775 
	C777.935181,140.484818 774.631348,150.140625 769.681458,152.987366 
	C763.181030,156.725815 759.026733,167.844070 761.673767,174.621506 
	C762.018921,175.505264 762.660339,176.590485 763.447632,176.934402 
	C769.929871,179.766068 775.851135,184.378433 783.473267,183.775543 
	C792.466431,183.064178 801.071716,184.568863 809.347839,188.052673 
	C816.661499,191.131363 824.597778,188.819366 832.019409,190.724747 
	C845.704773,194.238251 859.513733,190.739334 873.262268,191.575912 
	C885.267334,192.306381 896.915344,195.496719 908.922546,196.016037 
	C916.400330,196.339478 923.869202,195.796219 931.371277,196.521118 
	C941.124573,197.463547 950.296143,200.168411 959.264160,203.854309 
	C960.791748,204.482162 962.610718,205.059784 962.511047,207.149796 
	C962.414490,209.173065 960.569946,209.510620 959.083008,210.277679 
	C954.626770,212.576569 949.612427,212.803360 944.974792,212.873672 
	C935.114319,213.023148 925.093079,214.797256 915.374573,210.897430 
	C910.210876,208.825333 904.839966,211.198074 899.615417,211.808395 
	C888.875122,213.063004 878.318970,215.619598 867.515808,216.555634 
	C864.339355,216.830856 861.167358,217.214294 858.076050,216.409760 
	C851.435852,214.681595 844.823242,215.984039 838.223816,216.436417 
	C824.751343,217.359879 811.290405,218.079376 797.840637,216.306580 
	C794.221863,215.829590 792.492371,217.193069 791.362244,220.710587 
	C786.954163,234.430069 784.863403,248.567093 783.331543,262.807220 
	C781.944763,275.698334 786.370728,287.840210 788.817200,300.177887 
	C794.651367,329.599396 794.643860,359.044037 790.541077,388.612579 
	C788.267334,404.999146 787.448242,421.355164 790.340942,437.800720 
	C792.827148,451.935455 790.699646,466.027832 788.890564,480.055908 
	C787.247803,492.794373 786.010742,505.541992 786.518738,518.397461 
	C786.803650,525.607422 791.656006,530.530823 795.819214,535.638367 
	C801.259460,542.312561 800.353455,545.401062 791.748230,547.423340 
	C786.241028,548.717590 780.728638,550.205078 775.007568,549.952942 
	C767.328796,549.614441 764.484802,546.593628 764.900146,538.926025 
	C765.322815,531.122864 766.186707,523.344727 766.712219,515.545837 
	C767.844971,498.737274 764.344971,482.423035 761.340759,466.050995 
	C759.557678,456.333710 759.191589,446.549591 760.431641,436.712311 
	C760.846863,433.417328 761.187012,430.042419 760.144104,426.793549 
	C755.968567,413.786133 756.043884,400.202881 754.600037,386.364471 
M653.117249,195.954742 
	C644.269714,197.101105 635.556580,194.728210 626.698364,195.062622 
	C613.176086,195.573090 600.019592,199.325714 586.517578,199.403076 
	C577.178894,199.456604 567.911743,199.897278 558.652832,201.013474 
	C551.940186,201.822723 545.890442,204.565552 539.707581,207.121048 
	C548.990723,203.594971 558.462891,202.557632 568.730713,204.025696 
	C565.179199,208.850906 559.076111,205.645920 555.541443,209.460739 
	C564.055908,206.879181 573.094666,212.346207 581.426208,207.201874 
	C582.544922,206.511124 584.366760,206.664948 585.810486,206.846115 
	C591.753967,207.591965 597.676514,208.504272 603.608032,209.346207 
	C615.781189,211.074142 627.847351,214.065247 640.293701,212.655899 
	C644.095276,212.225418 647.836243,211.593185 651.716370,212.028152 
	C665.806946,213.607712 679.954773,214.011993 694.124146,213.688629 
	C697.239380,213.617538 700.307068,213.217896 702.906494,212.136520 
	C703.612183,209.444199 699.934570,208.659103 701.113159,205.760559 
	C705.216492,207.259872 706.699097,210.652527 707.986816,214.003662 
	C710.557983,220.695175 712.574890,227.602905 713.771606,234.652237 
	C716.397949,250.122849 721.776428,265.425964 717.210327,281.444153 
	C716.526489,283.843170 716.014648,286.293945 715.494629,288.735992 
	C715.078125,290.692078 715.183960,292.564056 717.661865,292.954376 
	C724.990173,294.108673 732.333679,295.170563 740.340698,294.491608 
	C738.023987,288.612213 731.133179,286.031708 731.816467,279.066040 
	C734.698547,283.948334 739.625671,287.003662 742.445435,291.864349 
	C744.293335,295.049927 752.798157,296.631042 754.397461,293.577545 
	C756.858643,288.878601 761.458130,286.029663 763.830383,281.375916 
	C764.354370,280.347992 764.921692,278.800476 767.002563,279.680359 
	C766.707825,286.046356 759.753906,288.631042 757.790222,294.667603 
	C766.895996,295.028442 775.033569,293.896973 783.690613,292.315247 
	C783.009277,289.045898 782.577454,286.283417 781.847168,283.602203 
	C779.855957,276.291046 778.875244,268.849396 779.837097,261.345123 
	C780.956848,252.608185 782.264160,243.868011 784.094543,235.257736 
	C785.648743,227.946793 787.904419,220.768372 790.172607,213.633987 
	C791.083557,210.768829 792.406006,207.744202 795.890747,206.429581 
	C796.750427,209.161880 793.730652,210.282074 795.307251,212.571533 
	C806.701172,214.303467 818.326416,213.758301 829.965332,213.303192 
	C837.609253,213.004303 845.233887,211.055374 852.850708,212.135544 
	C859.375549,213.060837 865.781372,213.146759 872.242615,212.210449 
	C884.428101,210.444595 896.602722,208.602890 908.789551,206.846573 
	C911.073364,206.517441 913.496094,205.846115 915.633362,207.210159 
	C923.713745,212.367065 932.302673,207.298889 940.586121,208.901978 
	C937.279602,206.126648 931.927429,208.844833 928.802063,203.575302 
	C935.103027,204.013824 940.545593,202.175217 946.205750,203.256058 
	C941.549072,201.997055 937.116638,200.486786 932.220886,200.115784 
	C918.652283,199.087555 904.983398,200.282181 891.468811,197.492432 
	C881.543457,195.443588 871.296387,194.018784 861.177307,195.250732 
	C851.265503,196.457428 841.584167,195.794464 831.897766,194.174667 
	C823.089355,192.701660 813.927551,194.197418 805.367798,190.358292 
	C798.750916,187.390625 791.552429,186.660034 784.309509,187.278091 
	C780.025818,187.643616 776.225769,186.379211 772.223328,185.002563 
	C762.788269,181.757324 755.216797,177.513000 758.243286,164.275650 
	C751.889771,168.218719 746.366394,167.362701 741.161072,165.691696 
	C739.885071,167.550018 740.152832,169.098923 740.152222,170.562622 
	C740.149902,176.145203 737.804138,179.672989 732.429688,182.026016 
	C724.713318,185.404358 717.156433,188.449524 708.480408,187.268890 
	C704.990723,186.794037 701.327942,187.283783 698.134521,188.545120 
	C688.861572,192.207794 679.224426,193.393311 669.397034,193.990646 
	C664.255493,194.303192 659.147949,195.174164 653.117249,195.954742 
M723.692078,351.195282 
	C720.570129,350.718170 717.386902,350.480804 714.341675,349.703125 
	C710.546631,348.733948 709.105957,349.847931 709.286011,353.790527 
	C709.809753,365.258026 710.358276,376.713715 711.835022,388.114166 
	C713.543945,401.306915 715.432922,414.463318 713.402100,427.863281 
	C711.149658,442.724884 710.976746,457.612976 713.136902,472.596100 
	C715.080566,486.077393 716.297119,499.642365 716.554443,513.333862 
	C716.733032,522.837646 713.161255,530.018066 707.117126,536.626526 
	C705.734131,538.138672 703.535889,539.203674 703.657776,542.359375 
	C711.076111,544.856079 718.601318,547.250061 726.710083,546.428894 
	C729.544128,546.141846 731.157227,544.291565 730.987244,541.267883 
	C730.753784,537.114929 730.604370,532.952515 730.208130,528.814331 
	C728.936584,515.533386 728.301941,502.324768 730.465027,489.006592 
	C732.620361,475.735565 736.540588,462.673279 735.912537,449.020386 
	C735.379089,437.426483 733.818787,425.765167 738.550842,414.563049 
	C738.920593,413.687653 738.744202,412.586243 738.846497,411.592468 
	C740.071716,399.682953 741.543274,387.792297 742.450073,375.858704 
	C743.112122,367.145386 744.478882,358.424408 743.756042,349.322479 
	C737.123474,349.825256 730.976135,351.709381 723.692078,351.195282 
M772.509949,546.160645 
	C778.951355,547.399658 785.043091,545.418884 791.171265,544.024841 
	C796.568359,542.797058 796.614014,542.100464 793.141724,537.722107 
	C788.497864,531.866516 783.420166,526.109497 783.057251,518.095764 
	C782.612427,508.272949 783.038391,498.447937 784.283691,488.704163 
	C786.879639,468.393799 789.829224,448.129974 785.624634,427.659027 
	C784.928223,424.268585 784.825989,420.712524 784.816101,417.231995 
	C784.765381,399.393250 788.778625,381.896790 789.392700,364.103424 
	C789.562195,359.191925 789.931702,354.303741 789.468689,348.782288 
	C777.685913,352.616211 766.376648,351.569885 754.858643,348.951447 
	C754.770142,350.740356 754.634583,351.542908 754.705933,352.326660 
	C755.912109,365.569763 756.978455,378.828552 758.420593,392.046265 
	C759.661499,403.419769 759.913513,414.953583 763.530029,425.989960 
	C764.747559,429.705597 764.243103,433.583893 763.831665,437.393555 
	C762.734619,447.551544 763.022766,457.667389 764.991333,467.687561 
	C767.909668,482.542023 771.135315,497.353271 770.246155,512.640991 
	C769.753845,521.106750 769.157043,529.566650 768.563538,538.026184 
	C768.340454,541.206421 767.642395,544.519714 772.509949,546.160645 
M712.222290,307.616852 
	C710.352417,318.471680 709.940308,329.422272 709.853210,340.413177 
	C709.823730,344.130798 711.383728,345.937439 714.873718,346.538910 
	C723.499573,348.025604 732.063477,348.012085 740.633423,345.999969 
	C743.315369,345.370270 744.734070,344.132019 744.790527,341.327728 
	C744.841797,338.777039 745.541626,336.890778 748.737915,336.714569 
	C752.253906,336.520752 753.619202,338.283203 753.803162,341.355927 
	C754.000854,344.658295 755.994385,345.844971 758.906311,346.417511 
	C767.659485,348.138519 776.332642,348.522095 785.122925,346.334412 
	C788.533813,345.485535 789.788635,344.044250 789.722290,340.598602 
	C789.462402,327.092621 787.794678,313.761780 785.357056,300.495422 
	C784.695312,296.893646 783.108765,296.234009 779.511841,296.696442 
	C761.303284,299.037262 743.010010,298.990051 724.752563,297.330322 
	C713.563110,296.313110 714.569824,293.314728 712.222290,307.616852 
M766.835083,141.418274 
	C767.606140,137.131454 767.856812,132.889282 766.983948,128.530807 
	C765.354309,120.393974 759.698669,115.136490 751.235107,114.332108 
	C741.937012,113.448418 733.524536,117.444000 731.451538,125.266426 
	C728.250122,137.347168 729.420593,149.208481 738.050781,159.078995 
	C743.982117,165.862747 752.765015,165.674072 759.249084,159.317535 
	C764.036133,154.624557 765.760986,148.619400 766.835083,141.418274 
M725.970947,145.247208 
	C726.606506,146.364838 726.773621,147.790604 728.511230,148.755188 
	C727.778564,145.647461 727.138550,142.932907 726.350281,139.589371 
	C724.761108,141.777130 725.372131,143.205444 725.970947,145.247208 
M769.926514,144.119629 
	C769.832520,145.237396 769.090637,146.413422 770.176758,148.099152 
	C771.336548,145.148590 773.463867,143.064529 771.785156,139.852859 
	C771.148499,140.456573 770.660156,140.710815 770.527161,141.089767 
	C770.261719,141.846313 770.191101,142.671219 769.926514,144.119629 
z"/>
<path fill="#000000" opacity="1.000000" stroke="none" 
	d="
M281.214264,206.088226 
	C283.478180,206.646530 283.103851,208.352921 283.074554,209.748749 
	C282.963440,215.044205 283.634766,220.418884 281.776764,225.617935 
	C279.276642,219.201157 279.485504,212.737259 281.214264,206.088226 
z"/>
<path fill="#000000" opacity="1.000000" stroke="none" 
	d="
M297.100220,414.248169 
	C297.289032,412.991943 298.138763,412.146179 298.700531,412.971130 
	C300.919922,416.230225 302.856995,419.681580 304.251984,423.491058 
	C300.114380,421.871063 298.481964,418.343475 297.100220,414.248169 
z"/>
<path fill="#000000" opacity="1.000000" stroke="none" 
	d="
M263.892334,413.318359 
	C264.937195,412.312897 265.904114,411.824646 266.243927,413.388062 
	C266.838013,416.121429 262.795837,421.867432 259.101227,423.310150 
	C259.665344,419.413635 262.856354,417.021057 263.892334,413.318359 
z"/>
<path fill="#000000" opacity="1.000000" stroke="none" 
	d="
M750.912964,265.425903 
	C750.602478,266.958344 750.630371,268.232788 747.729553,269.072510 
	C747.708252,252.334290 747.598328,236.031647 747.810364,219.729279 
	C748.708618,219.713928 749.606812,219.698593 750.505066,219.683258 
	C751.360291,234.758591 750.794861,249.887405 750.912964,265.425903 
z"/>
<path fill="#000000" opacity="1.000000" stroke="none" 
	d="
M727.236084,227.195435 
	C732.537476,224.818954 735.001343,221.127274 735.919189,215.611816 
	C737.084045,208.611786 739.428833,201.785187 734.599731,194.329590 
	C739.056763,196.202881 741.589905,200.873581 741.178528,204.660172 
	C739.347229,221.515030 732.000854,231.522675 719.575073,233.516663 
	C720.956665,229.848282 724.485107,229.235123 727.236084,227.195435 
z"/>
<path fill="#000000" opacity="1.000000" stroke="none" 
	d="
M761.458496,194.791031 
	C761.887268,195.467850 762.339294,196.271927 762.104492,196.655182 
	C757.050110,204.904922 761.536560,212.804321 763.163818,220.692261 
	C764.103882,225.248734 769.139343,226.068024 772.430298,228.438690 
	C774.353821,229.824341 777.051086,230.310760 777.932251,233.143036 
	C771.538635,233.159027 761.348694,225.550751 759.929443,219.785233 
	C758.856934,215.428375 757.863464,211.047760 756.995605,206.646027 
	C756.061707,201.909195 757.344788,197.848190 761.458496,194.791031 
z"/>
<path fill="#000000" opacity="1.000000" stroke="none" 
	d="
M729.406372,421.715179 
	C729.749695,419.874359 729.982178,418.401917 732.196838,417.098480 
	C732.703308,421.193451 732.180725,424.672607 730.835388,428.576019 
	C727.980347,426.495514 729.100647,424.204346 729.406372,421.715179 
z"/>
<path fill="#000000" opacity="1.000000" stroke="none" 
	d="
M717.768005,419.154968 
	C717.895020,417.728729 717.315979,416.374298 719.335327,415.814087 
	C720.448914,418.873566 722.024292,421.765991 720.165527,425.611542 
	C717.955994,423.771698 718.270874,421.497589 717.768005,419.154968 
z"/>
<path fill="#000000" opacity="1.000000" stroke="none" 
	d="
M720.234863,528.684021 
	C719.278320,529.609741 718.171509,529.684631 718.200684,528.700134 
	C718.273621,526.242371 718.302185,523.645325 720.438110,521.058472 
	C721.784607,523.914612 721.398804,526.131531 720.234863,528.684021 
z"/>
<path fill="#000000" opacity="1.000000" stroke="none" 
	d="
M766.954834,424.776550 
	C766.711609,422.126648 766.507446,419.876678 766.255127,417.096405 
	C769.777832,419.812897 770.421265,423.296051 768.748718,427.647217 
	C767.099365,427.579712 767.275513,426.210846 766.954834,424.776550 
z"/>
<path fill="#000000" opacity="1.000000" stroke="none" 
	d="
M778.860718,518.620728 
	C780.937805,516.689636 781.129395,518.408325 781.232483,519.610046 
	C781.506531,522.805542 781.598022,526.016663 781.242920,529.340088 
	C778.189819,526.498413 778.674683,522.707642 778.860718,518.620728 
z"/>
<path fill="#000000" opacity="1.000000" stroke="none" 
	d="
M781.226807,417.611908 
	C781.303955,420.552002 780.856323,422.957336 779.186340,425.775787 
	C776.784485,422.040192 778.475769,419.149414 779.286987,416.441528 
	C779.618896,415.333374 780.885620,416.052460 781.226807,417.611908 
z"/>
<path fill="#000000" opacity="1.000000" stroke="none" 
	d="
M783.045105,330.912292 
	C784.837585,334.164520 781.843140,334.590668 780.235352,335.321411 
	C771.837708,339.138123 763.111145,339.239349 754.403198,336.598114 
	C750.923950,335.542816 747.804626,335.376434 744.233398,336.445831 
	C736.443542,338.778351 728.493591,339.130127 720.675842,336.266968 
	C718.421265,335.441284 716.052795,334.627960 715.473450,331.135101 
	C722.312500,335.406189 729.673462,335.420624 737.120483,334.795898 
	C738.280762,334.698578 739.455505,334.650177 740.593079,334.424835 
	C747.476624,333.061401 747.638916,332.745789 747.785950,325.618622 
	C747.899658,320.104919 747.297546,314.524841 748.302917,308.432770 
	C750.976868,309.897064 750.582703,311.778900 750.658264,313.208344 
	C750.886719,317.527313 751.217102,321.895538 750.814331,326.179413 
	C750.312256,331.518890 752.727539,333.947144 757.626465,334.483276 
	C766.287048,335.431061 774.938965,336.137268 783.045105,330.912292 
z"/>
</svg>